<svg width="28" height="25" viewBox="0 0 28 25" fill="none" xmlns="http://www.w3.org/2000/svg">
<path d="M0 0H0.00412088C0.00274725 0.00645161 0.00137363 0.0193548 0 0.0258065V0Z" fill="#9ECEEA"/>
<path d="M8.77231 8.21613C10.44 9.25484 12.1308 10.2532 13.8185 11.2565C13.8431 13.329 13.8508 15.4016 13.8738 17.4758C15.5338 16.4871 17.1708 15.4597 18.7985 14.4129C18.7615 16.4323 18.7738 18.4516 18.7631 20.471C17.0985 21.4274 15.3954 22.3081 13.7385 23.2823C12.1385 22.2903 10.4631 21.4387 8.79077 20.5919C8.76154 18.3581 8.76923 16.1242 8.76308 13.8903C8.76615 11.9984 8.77231 10.1081 8.77231 8.21613Z" fill="#9ECEEA"/>
<path d="M8.04153 1.03548C9.97692 2.26129 12.0338 3.25323 13.9769 4.4629C15.6815 5.52903 17.4231 6.52742 19.1185 7.60484C17.3646 8.84194 15.5769 10.0258 13.8185 11.2565C12.1308 10.2532 10.44 9.25484 8.7723 8.21613C8.7723 10.1081 8.76615 11.9984 8.76307 13.8903C6.83384 13.0484 4.96154 12.0742 3.07846 11.1274C3.07077 8.81774 3.07692 6.50806 3.08 4.19677C4.71692 3.11452 6.40154 2.1129 8.04153 1.03548Z" fill="#0078C7"/>
<path d="M19.1369 1.3242C21 2.42903 22.8523 3.55968 24.6262 4.82097C24.6169 6.81774 24.6108 8.81613 24.6169 10.8129C22.7308 12.1065 20.7538 13.2419 18.7985 14.4129C17.1708 15.4597 15.5338 16.4871 13.8738 17.4758C13.8508 15.4016 13.8431 13.329 13.8185 11.2565C15.5769 10.0258 17.3646 8.84194 19.1185 7.60484C17.4231 6.52742 15.6815 5.52903 13.9769 4.46291C15.7662 3.54678 17.4246 2.38387 19.1369 1.3242Z" fill="#002C5F"/>
</svg>
